# xmcd
#
# Track frame offsets:
#	150
#	8950
#	19150
#	34225
#	44012
#	56425
#	66512
#	77087
#	87062
#	102737
#	110500
#	121937
#	133862
#	146800
#	156100
#
# Disc length: 2221
#
# Revision: 2
# Processed by: cddbd v1.5.1PL0 Copyright (c) Steve Scherf et al.
# Submitted via: CDex 1.30
# Normalized: r1:TDELIM( - )
#
DISCID=d608ab0f
DTITLE=Country - Juke Box Hits Vol4
DYEAR=2001
DGENRE=Country
TTITLE0=Glen Cambell - Wichita Linesman
TTITLE1=Johnny Cash - Train Of Love
TTITLE2=Bobby Bare - For The Good Times
TTITLE3=Mickey Gilley - Fraulein
TTITLE4=Gene Autry - You Belong To My Heart
TTITLE5=Dave Dudley - Oh Lonesome Me
TTITLE6=Hank Locklin - Crazy Over You
TTITLE7=Patsy Cline - Pick Me Up
TTITLE8=Cash McCall - Across The Missouri
TTITLE9=Roger Miller - Do Wacka Do
TTITLE10=George Jones - Window Up Above
TTITLE11=Diana Trask - It Is A Mens World
TTITLE12=Cowboy Cobas - Wreck On The Highway
TTITLE13=Jeannie C. Riley - The Girl Most Likely
TTITLE14=Gene Autry - Down In The Valley
EXTD=YEAR: 2001  ID3G:   2
EXTT0=
EXTT1=
EXTT2=
EXTT3=
EXTT4=
EXTT5=
EXTT6=
EXTT7=
EXTT8=
EXTT9=
EXTT10=
EXTT11=
EXTT12=
EXTT13=
EXTT14=
PLAYORDER=
